<?xml version="1.0" encoding="UTF-8" standalone="no"?>
<!-- Generator: Adobe Illustrator 16.2.1, SVG Export Plug-In . SVG Version: 6.00 Build 0)  -->

<svg
   xmlns:dc="http://purl.org/dc/elements/1.1/"
   xmlns:cc="http://creativecommons.org/ns#"
   xmlns:rdf="http://www.w3.org/1999/02/22-rdf-syntax-ns#"
   xmlns:svg="http://www.w3.org/2000/svg"
   xmlns="http://www.w3.org/2000/svg"
   xmlns:sodipodi="http://sodipodi.sourceforge.net/DTD/sodipodi-0.dtd"
   xmlns:inkscape="http://www.inkscape.org/namespaces/inkscape"
   version="1.1"
   id="Layer_1"
   x="0px"
   y="0px"
   width="512px"
   height="512px"
   viewBox="0 0 512 512"
   enable-background="new 0 0 512 512"
   xml:space="preserve"
   sodipodi:docname="md-folder-open.svg"
   inkscape:export-filename="C:\Craig\Documents\Python_Projects\OpenCV-Explorer\Assets\Icons\ImageOpen.png"
   inkscape:export-xdpi="9.6000004"
   inkscape:export-ydpi="9.6000004"
   inkscape:version="0.92.3 (2405546, 2018-03-11)"><metadata
   id="metadata247"><rdf:RDF><cc:Work
       rdf:about=""><dc:format>image/svg+xml</dc:format><dc:type
         rdf:resource="http://purl.org/dc/dcmitype/StillImage" /><dc:title></dc:title></cc:Work></rdf:RDF></metadata><defs
   id="defs245" /><sodipodi:namedview
   pagecolor="#ffffff"
   bordercolor="#666666"
   borderopacity="1"
   objecttolerance="10"
   gridtolerance="10"
   guidetolerance="10"
   inkscape:pageopacity="0"
   inkscape:pageshadow="2"
   inkscape:window-width="1500"
   inkscape:window-height="937"
   id="namedview243"
   showgrid="false"
   inkscape:zoom="1.5"
   inkscape:cx="156.33333"
   inkscape:cy="256"
   inkscape:window-x="-8"
   inkscape:window-y="-8"
   inkscape:window-maximized="1"
   inkscape:current-layer="Layer_1" />
<path
   d="M437.334,144H256.006l-42.668-48H74.666C51.197,96,32,115.198,32,138.667v234.666C32,396.802,51.197,416,74.666,416h362.668  C460.803,416,480,396.802,480,373.333V186.667C480,163.198,460.803,144,437.334,144z M448,373.333  c0,5.782-4.885,10.667-10.666,10.667H74.666C68.884,384,64,379.115,64,373.333V176h373.334c5.781,0,10.666,4.885,10.666,10.667  V373.333z"
   id="path240" />
</svg>