<?xml version="1.0" encoding="UTF-8" standalone="no"?>
<!-- Generator: Adobe Illustrator 18.1.1, SVG Export Plug-In . SVG Version: 6.00 Build 0)  -->

<svg
   xmlns:dc="http://purl.org/dc/elements/1.1/"
   xmlns:cc="http://creativecommons.org/ns#"
   xmlns:rdf="http://www.w3.org/1999/02/22-rdf-syntax-ns#"
   xmlns:svg="http://www.w3.org/2000/svg"
   xmlns="http://www.w3.org/2000/svg"
   xmlns:sodipodi="http://sodipodi.sourceforge.net/DTD/sodipodi-0.dtd"
   xmlns:inkscape="http://www.inkscape.org/namespaces/inkscape"
   version="1.1"
   id="Layer_1"
   x="0px"
   y="0px"
   viewBox="0 0 512 512"
   enable-background="new 0 0 512 512"
   xml:space="preserve"
   sodipodi:docname="md-git-network.svg"
   inkscape:export-filename="C:\Craig\Documents\Python_Projects\OpenCV-Explorer\Assets\Icons\PipelineOpen.png"
   inkscape:export-xdpi="10.29"
   inkscape:export-ydpi="10.29"
   inkscape:version="0.92.3 (2405546, 2018-03-11)"><metadata
   id="metadata2445"><rdf:RDF><cc:Work
       rdf:about=""><dc:format>image/svg+xml</dc:format><dc:type
         rdf:resource="http://purl.org/dc/dcmitype/StillImage" /><dc:title></dc:title></cc:Work></rdf:RDF></metadata><defs
   id="defs2443" /><sodipodi:namedview
   pagecolor="#ffffff"
   bordercolor="#666666"
   borderopacity="1"
   objecttolerance="10"
   gridtolerance="10"
   guidetolerance="10"
   inkscape:pageopacity="0"
   inkscape:pageshadow="2"
   inkscape:window-width="1500"
   inkscape:window-height="937"
   id="namedview2441"
   showgrid="false"
   inkscape:zoom="0.4609375"
   inkscape:cx="-68.338983"
   inkscape:cy="256"
   inkscape:window-x="-8"
   inkscape:window-y="-8"
   inkscape:window-maximized="1"
   inkscape:current-layer="Layer_1" />
<path
   d="m 96,64 c -35.3,0 -64,28.7 -64,64 0,35.3 28.7,64 64,64 23.6,0 44.3,-12.9 55.4,-32 h 52.8 l 48,96 -48,96 H 151.4 C 140.3,332.9 119.6,320 96,320 c -35.3,0 -64,28.7 -64,64 0,35.3 28.7,64 64,64 23.6,0 44.3,-12.9 55.4,-32 h 92.4 l 64,-128 h 52.8 c 11.1,19.1 31.8,32 55.4,32 35.3,0 64,-28.7 64,-64 0,-35.3 -28.7,-64 -64,-64 -23.6,0 -44.3,12.9 -55.4,32 H 307.8 L 243.8,96 H 151.4 C 140.3,76.9 119.6,64 96,64 Z M 56,384 c 0,-22.1 17.9,-40 40,-40 22.1,0 40,17.9 40,40 0,22.1 -17.9,40 -40,40 -22.1,0 -40,-17.9 -40,-40 z M 456,256 c 0,22.1 -17.9,40 -40,40 -22.1,0 -40,-17.9 -40,-40 0,-22.1 17.9,-40 40,-40 22.1,0 40,17.9 40,40 z M 136,128 c 0,22.1 -17.9,40 -40,40 -22.1,0 -40,-17.9 -40,-40 0,-22.1 17.9,-40 40,-40 22.1,0 40,17.9 40,40 z"
   id="path2438"
   inkscape:connector-curvature="0"
   inkscape:export-filename="C:\Craig\Documents\Python_Projects\OpenCV-Explorer\Assets\Icons\PipelineOpen.png"
   inkscape:export-xdpi="7.5"
   inkscape:export-ydpi="7.5" />
</svg>