<?xml version="1.0" encoding="UTF-8" standalone="no"?>
<!-- Generator: Adobe Illustrator 16.2.1, SVG Export Plug-In . SVG Version: 6.00 Build 0)  -->

<svg
   xmlns:dc="http://purl.org/dc/elements/1.1/"
   xmlns:cc="http://creativecommons.org/ns#"
   xmlns:rdf="http://www.w3.org/1999/02/22-rdf-syntax-ns#"
   xmlns:svg="http://www.w3.org/2000/svg"
   xmlns="http://www.w3.org/2000/svg"
   xmlns:sodipodi="http://sodipodi.sourceforge.net/DTD/sodipodi-0.dtd"
   xmlns:inkscape="http://www.inkscape.org/namespaces/inkscape"
   version="1.1"
   id="Layer_1"
   x="0px"
   y="0px"
   width="512px"
   height="512px"
   viewBox="0 0 512 512"
   enable-background="new 0 0 512 512"
   xml:space="preserve"
   sodipodi:docname="md-sync.svg"
   inkscape:export-filename="C:\Craig\Documents\Python_Projects\OpenCV-Explorer\Assets\Icons\InteractiveUpdate.png"
   inkscape:export-xdpi="6.8571429"
   inkscape:export-ydpi="6.8571429"
   inkscape:version="0.92.3 (2405546, 2018-03-11)"><metadata
   id="metadata8348"><rdf:RDF><cc:Work
       rdf:about=""><dc:format>image/svg+xml</dc:format><dc:type
         rdf:resource="http://purl.org/dc/dcmitype/StillImage" /><dc:title></dc:title></cc:Work></rdf:RDF></metadata><defs
   id="defs8346" /><sodipodi:namedview
   pagecolor="#ffffff"
   bordercolor="#666666"
   borderopacity="1"
   objecttolerance="10"
   gridtolerance="10"
   guidetolerance="10"
   inkscape:pageopacity="0"
   inkscape:pageshadow="2"
   inkscape:window-width="1500"
   inkscape:window-height="937"
   id="namedview8344"
   showgrid="false"
   inkscape:zoom="0.4609375"
   inkscape:cx="-68.338983"
   inkscape:cy="256"
   inkscape:window-x="-8"
   inkscape:window-y="-8"
   inkscape:window-maximized="1"
   inkscape:current-layer="Layer_1" />
<path
   d="M256,93.09V32l-80,81.454l80,81.456v-61.093c65.996,0,120,54.982,120,122.183c0,20.363-5,39.714-14.004,57.016L391,342.547  c15.996-25.457,25-54.988,25-86.547C416,166.401,343.998,93.09,256,93.09z M256,378.184c-66.001,0-120-54.988-120-122.184  c0-20.363,5-39.709,13.999-57.02L121,169.454C104.999,193.89,96,224.436,96,256c0,89.599,72.002,162.91,160,162.91V480l80-81.453  l-80-81.457V378.184z"
   id="path8341" />
</svg>